<?xml version="1.0" encoding="utf-8"?>
<!-- Generator: Adobe Illustrator 24.1.0, SVG Export Plug-In . SVG Version: 6.00 Build 0)  -->
<svg version="1.1" id="Слой_1" xmlns="http://www.w3.org/2000/svg" xmlns:xlink="http://www.w3.org/1999/xlink" x="0px" y="0px"
	 viewBox="0 0 16 16" style="enable-background:new 0 0 16 16;" xml:space="preserve">
<style type="text/css">
	.st0{fill:#FFFFFF;}
	.st1{fill-rule:evenodd;clip-rule:evenodd;fill:#FFFFFF;}
</style>
<path class="st0" d="M4,9c0,0.6-0.4,1-1,1S2,9.6,2,9s0.4-1,1-1S4,8.4,4,9z M14,9c0,0.6-0.4,1-1,1s-1-0.4-1-1s0.4-1,1-1S14,8.4,14,9z
	 M6,8C5.4,8,5,8.4,5,9s0.4,1,1,1h4c0.6,0,1-0.4,1-1s-0.4-1-1-1H6z M4.9,4.3l-1,1.9c-0.1,0.3,0,0.6,0.2,0.7c0.1,0,0.2,0.1,0.3,0
	C5.3,6.8,6.8,6.8,8,6.8s2.7,0.1,3.6,0.2c0.3,0,0.5-0.2,0.5-0.5c0-0.1,0-0.2,0-0.3l-1-1.9C11.1,4.1,10.9,4,10.7,4H5.3
	C5.1,4,4.9,4.1,4.9,4.3z"/>
<path class="st1" d="M2.5,3.5C2.9,2.6,3.8,2,4.8,2h6.4c1,0,1.9,0.6,2.3,1.5l0.8,1.8c0.1,0.2,0.2,0.3,0.4,0.4c0.5,0.2,0.9,0.7,1,1.3
	L16,8.7c0,0.2,0,0.3,0,0.5v0.4c0,0.8-0.4,1.5-1,2v1.9c0,0.3-0.2,0.5-0.5,0.5h-2c-0.3,0-0.5-0.2-0.5-0.5v-1.3c-1.3,0-2.7,0.1-4,0.1
	s-2.7,0-4-0.1v1.3C4,13.8,3.8,14,3.5,14h-2C1.2,14,1,13.8,1,13.5v-1.9c-0.6-0.5-1-1.2-1-2V9.2c0-0.2,0-0.3,0-0.5L0.4,7
	c0.1-0.5,0.5-1,1-1.3c0.2-0.1,0.3-0.2,0.4-0.4L2.5,3.5L2.5,3.5z M4.8,3C4.2,3,3.7,3.4,3.4,3.9L2.6,5.8C2.5,6.2,2.2,6.5,1.8,6.7
	C1.6,6.8,1.4,7,1.4,7.2L1,8.9C1,9,1,9.1,1,9.2v0.4c0,0.8,0.6,1.4,1.4,1.5C4,11.2,6.2,11.2,8,11.2s4-0.1,5.6-0.2
	c0.8,0,1.4-0.7,1.4-1.5V9.2c0-0.1,0-0.2,0-0.3l-0.3-1.7c0-0.2-0.2-0.5-0.4-0.6c-0.4-0.2-0.7-0.5-0.9-0.9l-0.8-1.8
	C12.3,3.4,11.8,3,11.2,3H4.8z"/>
</svg>
