<?xml version="1.0" encoding="utf-8"?>
<!-- Generator: Adobe Illustrator 24.1.0, SVG Export Plug-In . SVG Version: 6.00 Build 0)  -->
<svg version="1.1" id="Слой_1" xmlns="http://www.w3.org/2000/svg" xmlns:xlink="http://www.w3.org/1999/xlink" x="0px" y="0px"
	 viewBox="0 0 16 16" style="enable-background:new 0 0 16 16;" xml:space="preserve">
<style type="text/css">
	.st0{fill:#FC5556;}
</style>
<path class="st0" d="M2.5,8C2.5,5,5,2.5,8,2.5c1,0,1.9,0.3,2.8,0.7C11,3.4,11.3,3.3,11.4,3c0.1-0.2,0.1-0.5-0.2-0.7
	C8.1,0.6,4.2,1.6,2.4,4.7s-0.7,7.1,2.4,8.9s7.1,0.7,8.9-2.4c0.6-1,0.9-2.1,0.9-3.2c0-0.3-0.2-0.5-0.5-0.5S13.5,7.7,13.5,8
	c0,3-2.5,5.5-5.5,5.5S2.5,11,2.5,8z"/>
<path class="st0" d="M15.4,3.4c0.2-0.2,0.2-0.5,0-0.7c-0.2-0.2-0.5-0.2-0.7,0l0,0L8,9.3L5.4,6.6c-0.2-0.2-0.5-0.2-0.7,0
	s-0.2,0.5,0,0.7l3,3c0.2,0.2,0.5,0.2,0.7,0c0,0,0,0,0,0L15.4,3.4z"/>
</svg>
