<?xml version="1.0" encoding="utf-8"?>
<!-- Generator: Adobe Illustrator 24.1.0, SVG Export Plug-In . SVG Version: 6.00 Build 0)  -->
<svg version="1.1" id="Слой_1" xmlns="http://www.w3.org/2000/svg" xmlns:xlink="http://www.w3.org/1999/xlink" x="0px" y="0px"
	 viewBox="0 0 16 16" style="enable-background:new 0 0 16 16;" xml:space="preserve">
<style type="text/css">
	.st0{fill-rule:evenodd;clip-rule:evenodd;fill:#FFFFFF;}
</style>
<path class="st0" d="M0,0h1v15h15v1H0V0z M10,3.5C10,3.2,10.2,3,10.5,3h4C14.8,3,15,3.2,15,3.5v4C15,7.8,14.8,8,14.5,8
	S14,7.8,14,7.5V4.9l-3.6,4.4c-0.2,0.2-0.5,0.2-0.7,0.1c0,0,0,0,0,0L7.1,6.8l-3.7,5C3.2,12,2.9,12,2.7,11.9c-0.2-0.2-0.3-0.5-0.1-0.7
	l4-5.5c0.2-0.2,0.5-0.3,0.7-0.1c0,0,0,0,0.1,0.1L10,8.3L13.4,4h-2.9C10.2,4,10,3.8,10,3.5z"/>
</svg>
