<?xml version="1.0" encoding="utf-8"?>
<!-- Generator: Adobe Illustrator 24.1.0, SVG Export Plug-In . SVG Version: 6.00 Build 0)  -->
<svg version="1.1" id="Слой_1" xmlns="http://www.w3.org/2000/svg" xmlns:xlink="http://www.w3.org/1999/xlink" x="0px" y="0px"
	 viewBox="0 0 16 16" style="enable-background:new 0 0 16 16;" xml:space="preserve">
<style type="text/css">
	.st0{fill:#FFFFFF;}
</style>
<path class="st0" d="M0,8c0-2.2,1.8-4,4-4c1.4,0,2.8,0.8,3.5,2H14c0.1,0,0.3,0.1,0.4,0.1l1.5,1.5c0.2,0.2,0.2,0.5,0,0.7c0,0,0,0,0,0
	l-1.5,1.5c-0.2,0.2-0.5,0.2-0.7,0c0,0,0,0,0,0L13,9.2l-0.6,0.6c-0.2,0.2-0.5,0.2-0.7,0c0,0,0,0,0,0L11,9.2l-0.6,0.6
	c-0.2,0.2-0.5,0.2-0.7,0c0,0,0,0,0,0L9,9.2L8.4,9.9C8.3,9.9,8.1,10,8,10H7.5c-1.1,1.9-3.5,2.6-5.5,1.5C0.8,10.8,0,9.4,0,8z M4,5
	C2.3,5,1,6.3,1,8s1.3,3,3,3c1.2,0,2.2-0.7,2.7-1.7C6.8,9.1,7,9,7.2,9h0.6l0.9-0.9C8.8,8,9.2,8,9.4,8.1c0,0,0,0,0,0L10,8.8l0.6-0.6
	c0.2-0.2,0.5-0.2,0.7,0c0,0,0,0,0,0L12,8.8l0.6-0.6c0.2-0.2,0.5-0.2,0.7,0c0,0,0,0,0,0L14,8.8L14.8,8l-1-1H7.2C7,7,6.8,6.9,6.7,6.7
	C6.2,5.7,5.2,5,4,5z"/>
<path class="st0" d="M4,8c0,0.6-0.4,1-1,1S2,8.6,2,8c0-0.6,0.4-1,1-1S4,7.4,4,8z"/>
</svg>
