<?xml version="1.0" encoding="utf-8"?>
<!-- Generator: Adobe Illustrator 24.1.0, SVG Export Plug-In . SVG Version: 6.00 Build 0)  -->
<svg version="1.1" id="Слой_1" xmlns="http://www.w3.org/2000/svg" xmlns:xlink="http://www.w3.org/1999/xlink" x="0px" y="0px"
	 viewBox="0 0 16 16" style="enable-background:new 0 0 16 16;" xml:space="preserve">
<style type="text/css">
	.st0{fill:#FFFFFF;}
</style>
<path class="st0" d="M1,3c0-0.6,0.4-1,1-1h12c0.6,0,1,0.4,1,1H1z M8,11c1.1,0,2-0.9,2-2S9.1,7,8,7S6,7.9,6,9S6.9,11,8,11z"/>
<path class="st0" d="M0,5c0-0.6,0.4-1,1-1h14c0.6,0,1,0.4,1,1v8c0,0.6-0.4,1-1,1H1c-0.6,0-1-0.4-1-1V5z M3,5c0,1.1-0.9,2-2,2v4
	c1.1,0,2,0.9,2,2h10c0-1.1,0.9-2,2-2V7c-1.1,0-2-0.9-2-2H3z"/>
</svg>
