<?xml version="1.0" encoding="utf-8"?>
<!-- Generator: Adobe Illustrator 24.1.0, SVG Export Plug-In . SVG Version: 6.00 Build 0)  -->
<svg version="1.1" id="Layer_1" xmlns="http://www.w3.org/2000/svg" xmlns:xlink="http://www.w3.org/1999/xlink" x="0px" y="0px"
	 viewBox="0 0 1000 83.8" style="enable-background:new 0 0 1000 83.8;" xml:space="preserve">
<style type="text/css">
	.st0{display:none;fill:#020202;}
	.st1{fill:url(#Backdrop_1_);}
	.st2{fill:url(#Stripe_1_);}
	.st3{fill:url(#U_2_);}
	.st4{fill:#FFFFFF;}
</style>
<rect y="-152" class="st0" width="1343.9" height="535.3"/>
<g id="Image_Logo">
	<linearGradient id="Backdrop_1_" gradientUnits="userSpaceOnUse" x1="2.2329" y1="2.2329" x2="81.5983" y2="81.5982">
		<stop  offset="0" style="stop-color:#464451"/>
		<stop  offset="0.5" style="stop-color:#2B2735"/>
		<stop  offset="1" style="stop-color:#130B15"/>
	</linearGradient>
	<path id="Backdrop" class="st1" d="M76.2,0H7.6C3.4,0,0,3.4,0,7.6l0,68.6c0,4.2,3.4,7.6,7.6,7.6h68.6c4.2,0,7.6-3.4,7.6-7.6V7.6
		C83.8,3.4,80.4,0,76.2,0z"/>
	<linearGradient id="Stripe_1_" gradientUnits="userSpaceOnUse" x1="4.6719" y1="4.6719" x2="79.1592" y2="79.1592">
		<stop  offset="0" style="stop-color:#FEFEFE"/>
		<stop  offset="1" style="stop-color:#97949B"/>
	</linearGradient>
	<path id="Stripe" class="st2" d="M75.9,3.3h-68c-2.5,0-4.6,2-4.6,4.6v68c0,2.5,2,4.6,4.6,4.6h68c2.5,0,4.6-2,4.6-4.5V7.9
		C80.5,5.4,78.5,3.3,75.9,3.3z M77.1,75.8c0,0.7-0.6,1.3-1.3,1.3H8.1c-0.7,0-1.3-0.6-1.3-1.3V8.1c0-0.7,0.6-1.3,1.3-1.3h67.7
		c0.7,0,1.3,0.6,1.3,1.3V75.8z"/>
	<linearGradient id="U_2_" gradientUnits="userSpaceOnUse" x1="21.3868" y1="18.2464" x2="62.4443" y2="59.304">
		<stop  offset="0" style="stop-color:#F2F2F2"/>
		<stop  offset="1" style="stop-color:#B6B6B6"/>
	</linearGradient>
	<path id="U_1_" class="st3" d="M48.6,64.9c11.6,0,16.3-6.5,16.3-14.4V22c0-1.7-1.2-3.1-3.2-3.1H47v3.5c0,1.4,1.1,3.1,3.1,3.1h8.5
		v24.2c0,8.4-6.3,9-10.1,9H35.4c-3.8,0-10.1-0.5-10.1-9V25.5h11.6V22c0-1.4-1.1-3.1-3.1-3.1H22.1c-2,0-3.2,1.4-3.2,3.1v28.5
		c0,7.9,4.7,14.4,16.3,14.4H48.6z"/>
</g>
<g>
	<g>
		<path class="st4" d="M173.5,39.9c0,9.8-2.7,17.4-8.1,22.9c-5.4,5.5-14.4,8.2-26.9,8.2c-12.5,0-21.5-2.7-26.9-8.2
			c-5.4-5.5-8.1-13.1-8.1-22.9V8.9h5v30.9c0,7.9,2.1,14.2,6.3,19.2s12.1,7.4,23.6,7.4c11.6,0,19.5-2.5,23.7-7.4s6.3-11.3,6.3-19.2
			V8.9h5V39.9z"/>
		<path class="st4" d="M256.9,43.6c1.9,2.4,2.8,5.5,2.8,9.2c0,5.1-1.6,9.1-4.8,12.1c-3.2,2.9-7.8,4.4-13.7,4.4h-51.1V8.9h48.2
			c6.3,0,10.9,1.4,13.9,4.3c3,2.8,4.5,6.5,4.5,11.1c0,2.9-0.6,5.5-1.9,8c-1.3,2.4-3.2,4.4-5.8,5.9C252.4,39.3,255,41.1,256.9,43.6z
			 M195.2,13.5v22.9h42c4.3,0,7.8-0.9,10.4-2.7c2.6-1.8,4-4.7,4-8.9c0-3.9-1.2-6.8-3.6-8.6c-2.4-1.8-6-2.8-10.8-2.8H195.2z
			 M240.1,64.7c4.8,0,8.3-0.9,10.7-2.8c2.4-1.9,3.6-4.9,3.6-9.1c0-4.2-1.3-7.2-4-9c-2.6-1.8-6.1-2.7-10.3-2.7h-44.9v23.6H240.1z"/>
		<path class="st4" d="M334.5,8.9v4.6h-54.1v23.2h52.3v4.6h-52.3v23.2h54.1v4.6h-59.1V8.9H334.5z"/>
		<path class="st4" d="M410.9,45.4c1.6,1.9,2.5,4.4,2.5,7.4v16.4h-5V53.6c0-2.9-0.8-5-2.3-6.3c-1.5-1.3-3.8-2-6.9-2h-43.7v23.8h-5
			V8.9h41.3c7.5,0,13.1,1.4,16.8,4.3c3.8,2.8,5.6,7.2,5.6,13c0,7.9-3.4,13.1-10.2,15.6C407,42.3,409.2,43.5,410.9,45.4z M355.4,13.5
			v27.2h35.5c5.9,0,10.4-1,13.5-3.1c3.1-2.1,4.6-5.7,4.6-10.8c0-5.1-1.5-8.5-4.5-10.5c-3-1.9-7.5-2.9-13.6-2.9H355.4z"/>
		<path class="st4" d="M431.1,69.2v-5.6h6.3v5.6H431.1z"/>
		<path class="st4" d="M511.2,19.3h5v49.9h-5V55.7c-2.9,4.9-6.9,8.6-12.1,11.3c-5.1,2.6-11.1,4-17.8,4c-9.2,0-16.1-2.1-20.7-6.3
			c-4.6-4.2-7-11.3-7.1-21.3V19.3h5v23.6c0,5.7,0.8,10.2,2.5,13.6c1.6,3.4,4.2,5.9,7.6,7.5c3.4,1.6,7.9,2.4,13.4,2.4
			c5.5,0,10.4-1,14.8-3.1c4.4-2,7.9-5,10.5-8.8c2.6-3.8,3.9-8.3,3.9-13.4V19.3z"/>
		<path class="st4" d="M583.1,19.3h9l-30.5,20.1l30.5,29.9h-7.4l-27.3-27L537.9,55v14.2h-5V0.3h5v48.8L583.1,19.3z"/>
		<path class="st4" d="M652,19.3v4.6c-4.6-1.1-9.2-1.7-13.9-1.7c-4,0-8,0.7-12,2.2c-4,1.5-8.4,4.2-13.3,8.3v36.6h-5V19.3h5v8.6
			c4.1-4,8.2-6.7,12.2-8.1c4-1.5,8.3-2.2,12.9-2.2C642.7,17.6,647.4,18.1,652,19.3z"/>
		<path class="st4" d="M721.5,22.8c4.6,3.5,7,9.2,7,17v29.4h-5v-6.7c-6.5,2.7-12.3,4.8-17.4,6.2c-5.1,1.5-10.7,2.2-16.6,2.2
			c-8.5,0-14.7-1.5-18.6-4.4c-3.9-2.9-5.8-7.2-5.8-12.9c0-6.1,2.6-10.6,7.8-13.4c5.2-2.8,12.3-4.2,21.4-4.2c4.5,0,9.3,0.5,14.4,1.4
			c5.1,0.9,10.1,2.1,14.8,3.5v-2.2c0-11-7.8-16.5-23.5-16.5c-4.1,0-8.4,0.3-12.9,1c-4.5,0.7-9.8,2-16,3.9l-2-4.2
			c5.3-1.7,10.5-3,15.6-3.9c5.1-0.9,10.2-1.3,15.5-1.3C709.8,17.6,716.9,19.3,721.5,22.8z M706.1,64c5.6-1.6,11.4-3.6,17.4-6.1V45.6
			c-5.1-1.5-9.9-2.8-14.4-3.7c-4.5-0.9-9.4-1.4-14.6-1.4c-7,0-12.8,1-17.3,3c-4.5,2-6.8,5.4-6.8,10.2c0,4.5,1.6,7.7,4.9,9.7
			c3.3,2,8.3,3,15,3C695.3,66.4,700.5,65.6,706.1,64z"/>
		<path class="st4" d="M744.4,10.1V0.3h5v9.7H744.4z M744.4,69.2V19.3h5v49.9H744.4z"/>
		<path class="st4" d="M821.6,23.8c4.6,4.2,7,11.3,7.1,21.3v24.1h-5V45.6c0-5.7-0.8-10.2-2.5-13.6c-1.6-3.4-4.2-5.9-7.6-7.5
			c-3.4-1.6-7.9-2.4-13.4-2.4c-5.5,0-10.4,1-14.8,3.1c-4.4,2-7.9,5-10.5,8.8c-2.6,3.8-3.9,8.3-3.9,13.4v21.8h-5V19.3h5v13.5
			c2.9-4.9,6.9-8.6,12.1-11.3c5.1-2.6,11-4,17.8-4C810,17.6,816.9,19.7,821.6,23.8z"/>
		<path class="st4" d="M894,63.1c4.1-2.2,6.8-5.2,8.3-9.1h5.5c-1.4,5.3-4.8,9.4-9.9,12.4c-5.2,3-12,4.5-20.4,4.5
			c-10.3,0-18.4-2.3-24.2-7c-5.8-4.6-8.7-11.2-8.7-19.7c0-5.6,1.3-10.4,3.9-14.5c2.6-4,6.3-7.1,11.2-9.1c4.8-2.1,10.6-3.1,17.2-3.1
			c10.1,0,18,2.3,23.5,6.9c5.6,4.6,8.4,11.4,8.4,20.4h-59c0.1,7.3,2.7,12.7,7.6,16.2c5,3.5,11.6,5.3,20,5.3
			C884.4,66.4,889.9,65.3,894,63.1z M858.5,26.6c-4.8,3-7.6,7.5-8.5,13.6h53.2c-0.7-6-3.4-10.5-8.1-13.6c-4.7-3-10.8-4.5-18.3-4.5
			C869.4,22.1,863.3,23.6,858.5,26.6z"/>
	</g>
</g>
</svg>
