<?xml version="1.0" encoding="utf-8"?>
<!-- Generator: Adobe Illustrator 24.1.0, SVG Export Plug-In . SVG Version: 6.00 Build 0)  -->
<svg version="1.1" id="Слой_1" xmlns="http://www.w3.org/2000/svg" xmlns:xlink="http://www.w3.org/1999/xlink" x="0px" y="0px"
	 viewBox="0 0 16 16" style="enable-background:new 0 0 16 16;" xml:space="preserve">
<style type="text/css">
	.st0{fill:#FFFFFF;}
</style>
<path class="st0" d="M0,3c0-1.1,0.9-2,2-2h13.5C15.8,1,16,1.2,16,1.5S15.8,2,15.5,2H15v2c0.6,0,1,0.4,1,1v8.5c0,0.8-0.7,1.5-1.5,1.5
	h-12C1.1,15,0,13.9,0,12.5V3z M1,4.7v7.8C1,13.3,1.7,14,2.5,14h12c0.3,0,0.5-0.2,0.5-0.5V5H2C1.6,5,1.3,4.9,1,4.7z M1,3
	c0,0.6,0.4,1,1,1h12V2H2C1.4,2,1,2.4,1,3z"/>
</svg>
