<?xml version="1.0" encoding="utf-8"?>
<!-- Generator: Adobe Illustrator 24.1.0, SVG Export Plug-In . SVG Version: 6.00 Build 0)  -->
<svg version="1.1" id="Слой_1" xmlns="http://www.w3.org/2000/svg" xmlns:xlink="http://www.w3.org/1999/xlink" x="0px" y="0px"
	 viewBox="0 0 1395.4 706.4" style="enable-background:new 0 0 1395.4 706.4;" xml:space="preserve">
<style type="text/css">
	.st0{fill:#070716;}
	.st1{opacity:0.9;}
	.st2{fill:#1EACC7;}
</style>
<symbol  id="Новый_символ" viewBox="-697.7 -358.5 1395.4 717">
	<rect x="-697.7" y="-358.5" class="st0" width="1395.4" height="717"/>
	
		<image style="overflow:visible;opacity:0.25;" width="2560" height="1601" xlink:href="2560px-World_map_(blue_dots).svg.png"  transform="matrix(0.4412 0 0 -0.4412 -587.0847 353.2082)">
	</image>
	<g class="st1">
		<circle class="st2" cx="110.7" cy="32.2" r="3"/>
		<circle class="st2" cx="119.7" cy="-36.9" r="3"/>
		<circle class="st2" cx="119.7" cy="-27.9" r="3"/>
		<circle class="st2" cx="128.7" cy="-27.9" r="3"/>
		<circle class="st2" cx="99.2" cy="-55.4" r="3"/>
		<circle class="st2" cx="110.7" cy="-27.9" r="3"/>
		<circle class="st2" cx="119.7" cy="-18.9" r="3"/>
		<circle class="st2" cx="93.2" cy="7.6" r="3"/>
		<circle class="st2" cx="-11.3" cy="164.6" r="3"/>
		<circle class="st2" cx="-72.7" cy="41.6" r="3"/>
		<circle class="st2" cx="-431" cy="59" r="3"/>
		<circle class="st2" cx="-421.9" cy="76.9" r="3"/>
		<circle class="st2" cx="-421.9" cy="67.8" r="3"/>
		<circle class="st2" cx="425.2" cy="269.3" r="3"/>
	</g>
</symbol>
<use xlink:href="#Новый_символ"  width="1395.4" height="717" x="-697.7" y="-358.5" transform="matrix(1 0 0 -1 697.7206 353.2082)" style="overflow:visible;"/>
<g>
</g>
<g>
</g>
<g>
</g>
</svg>
